<svg width="275" height="138" viewBox="0 0 275 138" fill="none" xmlns="http://www.w3.org/2000/svg">
<path d="M73.4167 9L123.833 39V99L73.4167 129L23 99V39L73.4167 9Z" stroke="url(#paint0_linear_74_22)" stroke-width="4"/>
<path d="M87.5333 44H59.3C55.9587 44 53.25 46.6863 53.25 50V88C53.25 91.3137 55.9587 94 59.3 94H87.5333C90.8747 94 93.5833 91.3137 93.5833 88V50C93.5833 46.6863 90.8747 44 87.5333 44Z" fill="#3A82F6" stroke="#3B82F6" stroke-width="1.5"/>
<path d="M59.2998 54H87.5331" stroke="white" stroke-width="2"/>
<path d="M59.2998 62H83.4998" stroke="white" stroke-width="2"/>
<path d="M59.2998 70H79.4665" stroke="white" stroke-width="2"/>
<path d="M143.153 95.7676C143.153 95.6152 143.129 95.4785 143.083 95.3574C143.04 95.2324 142.958 95.1191 142.836 95.0176C142.715 94.9121 142.545 94.8086 142.327 94.707C142.108 94.6055 141.825 94.5 141.477 94.3906C141.09 94.2656 140.723 94.125 140.375 93.9688C140.032 93.8125 139.727 93.6309 139.461 93.4238C139.2 93.2129 138.993 92.9688 138.84 92.6914C138.692 92.4141 138.618 92.0918 138.618 91.7246C138.618 91.3691 138.696 91.0469 138.852 90.7578C139.008 90.4648 139.227 90.2148 139.508 90.0078C139.79 89.7969 140.122 89.6348 140.504 89.5215C140.891 89.4082 141.315 89.3516 141.776 89.3516C142.405 89.3516 142.954 89.4648 143.422 89.6914C143.891 89.918 144.254 90.2285 144.512 90.623C144.774 91.0176 144.905 91.4688 144.905 91.9766H143.159C143.159 91.7266 143.106 91.5078 143 91.3203C142.899 91.1289 142.743 90.9785 142.532 90.8691C142.325 90.7598 142.063 90.7051 141.747 90.7051C141.442 90.7051 141.188 90.752 140.985 90.8457C140.782 90.9355 140.629 91.0586 140.528 91.2148C140.426 91.3672 140.375 91.5391 140.375 91.7305C140.375 91.875 140.411 92.0059 140.481 92.123C140.555 92.2402 140.665 92.3496 140.809 92.4512C140.954 92.5527 141.131 92.6484 141.342 92.7383C141.553 92.8281 141.797 92.916 142.075 93.002C142.54 93.1426 142.948 93.3008 143.299 93.4766C143.655 93.6523 143.952 93.8496 144.19 94.0684C144.428 94.2871 144.608 94.5352 144.729 94.8125C144.85 95.0898 144.911 95.4043 144.911 95.7559C144.911 96.127 144.838 96.459 144.694 96.752C144.549 97.0449 144.34 97.293 144.067 97.4961C143.793 97.6992 143.467 97.8535 143.088 97.959C142.709 98.0645 142.286 98.1172 141.817 98.1172C141.395 98.1172 140.979 98.0625 140.569 97.9531C140.159 97.8398 139.786 97.6699 139.45 97.4434C139.118 97.2168 138.852 96.9277 138.653 96.5762C138.454 96.2246 138.354 95.8086 138.354 95.3281H140.118C140.118 95.5938 140.159 95.8184 140.241 96.002C140.323 96.1855 140.438 96.334 140.586 96.4473C140.739 96.5605 140.918 96.6426 141.125 96.6934C141.336 96.7441 141.567 96.7695 141.817 96.7695C142.122 96.7695 142.372 96.7266 142.567 96.6406C142.766 96.5547 142.913 96.4355 143.006 96.2832C143.104 96.1309 143.153 95.959 143.153 95.7676ZM147.688 92.9727V98H145.995V91.6602H147.583L147.688 92.9727ZM147.454 94.6074H146.985C146.985 94.166 147.038 93.7598 147.143 93.3887C147.252 93.0137 147.411 92.6895 147.618 92.416C147.829 92.1387 148.088 91.9238 148.397 91.7715C148.706 91.6191 149.063 91.543 149.469 91.543C149.75 91.543 150.008 91.5859 150.243 91.6719C150.477 91.7539 150.678 91.8848 150.846 92.0645C151.018 92.2402 151.151 92.4707 151.245 92.7559C151.338 93.0371 151.385 93.375 151.385 93.7695V98H149.698V93.957C149.698 93.668 149.659 93.4453 149.581 93.2891C149.502 93.1328 149.391 93.0234 149.247 92.9609C149.106 92.8984 148.936 92.8672 148.737 92.8672C148.518 92.8672 148.327 92.9121 148.163 93.002C148.002 93.0918 147.87 93.2168 147.764 93.377C147.659 93.5332 147.581 93.7168 147.53 93.9277C147.479 94.1387 147.454 94.3652 147.454 94.6074ZM151.227 94.4141L150.624 94.4902C150.624 94.0762 150.674 93.6914 150.776 93.3359C150.881 92.9805 151.036 92.668 151.239 92.3984C151.446 92.1289 151.702 91.9199 152.006 91.7715C152.311 91.6191 152.663 91.543 153.061 91.543C153.366 91.543 153.643 91.5879 153.893 91.6777C154.143 91.7637 154.356 91.9023 154.532 92.0938C154.711 92.2812 154.848 92.5273 154.942 92.832C155.04 93.1367 155.088 93.5098 155.088 93.9512V98H153.395V93.9512C153.395 93.6582 153.356 93.4355 153.278 93.2832C153.204 93.127 153.094 93.0195 152.95 92.9609C152.809 92.8984 152.641 92.8672 152.446 92.8672C152.243 92.8672 152.065 92.9082 151.913 92.9902C151.76 93.0684 151.633 93.1777 151.532 93.3184C151.43 93.459 151.354 93.623 151.303 93.8105C151.252 93.9941 151.227 94.1953 151.227 94.4141ZM159.817 96.5703V93.7461C159.817 93.543 159.784 93.3691 159.717 93.2246C159.651 93.0762 159.547 92.9609 159.407 92.8789C159.27 92.7969 159.092 92.7559 158.874 92.7559C158.686 92.7559 158.524 92.7891 158.387 92.8555C158.25 92.918 158.145 93.0098 158.071 93.1309C157.997 93.248 157.959 93.3867 157.959 93.5469H156.272C156.272 93.2773 156.334 93.0215 156.459 92.7793C156.584 92.5371 156.766 92.3242 157.004 92.1406C157.243 91.9531 157.526 91.8066 157.854 91.7012C158.186 91.5957 158.557 91.543 158.967 91.543C159.459 91.543 159.897 91.625 160.28 91.7891C160.663 91.9531 160.963 92.1992 161.182 92.5273C161.405 92.8555 161.516 93.2656 161.516 93.7578V96.4707C161.516 96.8184 161.538 97.1035 161.581 97.3262C161.624 97.5449 161.686 97.7363 161.768 97.9004V98H160.063C159.981 97.8281 159.918 97.6133 159.875 97.3555C159.836 97.0938 159.817 96.832 159.817 96.5703ZM160.04 94.1387L160.051 95.0938H159.108C158.885 95.0938 158.692 95.1191 158.528 95.1699C158.364 95.2207 158.229 95.293 158.124 95.3867C158.018 95.4766 157.94 95.582 157.889 95.7031C157.842 95.8242 157.819 95.957 157.819 96.1016C157.819 96.2461 157.852 96.377 157.918 96.4941C157.985 96.6074 158.081 96.6973 158.206 96.7637C158.331 96.8262 158.477 96.8574 158.645 96.8574C158.899 96.8574 159.12 96.8066 159.307 96.7051C159.495 96.6035 159.639 96.4785 159.741 96.3301C159.846 96.1816 159.901 96.041 159.905 95.9082L160.35 96.623C160.288 96.7832 160.202 96.9492 160.092 97.1211C159.987 97.293 159.852 97.4551 159.688 97.6074C159.524 97.7559 159.327 97.8789 159.096 97.9766C158.866 98.0703 158.592 98.1172 158.276 98.1172C157.874 98.1172 157.508 98.0371 157.18 97.877C156.856 97.7129 156.598 97.4883 156.407 97.2031C156.219 96.9141 156.125 96.5859 156.125 96.2188C156.125 95.8867 156.188 95.5918 156.313 95.334C156.438 95.0762 156.622 94.8594 156.864 94.6836C157.11 94.5039 157.417 94.3691 157.784 94.2793C158.151 94.1855 158.577 94.1387 159.061 94.1387H160.04ZM164.504 93.043V98H162.817V91.6602H164.405L164.504 93.043ZM166.415 91.6191L166.385 93.1836C166.303 93.1719 166.204 93.1621 166.086 93.1543C165.973 93.1426 165.87 93.1367 165.776 93.1367C165.538 93.1367 165.331 93.168 165.155 93.2305C164.983 93.2891 164.838 93.377 164.721 93.4941C164.608 93.6113 164.522 93.7539 164.463 93.9219C164.409 94.0898 164.377 94.2812 164.37 94.4961L164.03 94.3906C164.03 93.9805 164.071 93.6035 164.153 93.2598C164.235 92.9121 164.354 92.6094 164.51 92.3516C164.67 92.0938 164.866 91.8945 165.096 91.7539C165.327 91.6133 165.59 91.543 165.887 91.543C165.981 91.543 166.077 91.5508 166.174 91.5664C166.272 91.5781 166.352 91.5957 166.415 91.6191ZM170.61 91.6602V92.8555H166.918V91.6602H170.61ZM167.833 90.0957H169.52V96.0898C169.52 96.2734 169.543 96.4141 169.59 96.5117C169.641 96.6094 169.715 96.6777 169.813 96.7168C169.911 96.752 170.034 96.7695 170.182 96.7695C170.288 96.7695 170.381 96.7656 170.463 96.7578C170.549 96.7461 170.622 96.7344 170.68 96.7227L170.686 97.9648C170.542 98.0117 170.385 98.0488 170.217 98.0762C170.049 98.1035 169.864 98.1172 169.661 98.1172C169.29 98.1172 168.965 98.0566 168.688 97.9355C168.415 97.8105 168.204 97.6113 168.055 97.3379C167.907 97.0645 167.833 96.7051 167.833 96.2598V90.0957ZM180.149 96.6289V98H175.854V96.6289H180.149ZM176.422 89.4688V98H174.665V89.4688H176.422ZM183.969 98.1172C183.477 98.1172 183.036 98.0391 182.645 97.8828C182.254 97.7227 181.922 97.502 181.649 97.2207C181.379 96.9395 181.172 96.6133 181.028 96.2422C180.883 95.8672 180.811 95.4688 180.811 95.0469V94.8125C180.811 94.332 180.879 93.8926 181.016 93.4941C181.153 93.0957 181.348 92.75 181.602 92.457C181.86 92.1641 182.172 91.9395 182.54 91.7832C182.907 91.623 183.321 91.543 183.782 91.543C184.231 91.543 184.629 91.6172 184.977 91.7656C185.325 91.9141 185.616 92.125 185.85 92.3984C186.088 92.6719 186.268 93 186.389 93.3828C186.51 93.7617 186.571 94.1836 186.571 94.6484V95.3516H181.532V94.2266H184.913V94.0977C184.913 93.8633 184.87 93.6543 184.784 93.4707C184.702 93.2832 184.577 93.1348 184.409 93.0254C184.241 92.916 184.026 92.8613 183.764 92.8613C183.542 92.8613 183.35 92.9102 183.19 93.0078C183.03 93.1055 182.899 93.2422 182.797 93.418C182.7 93.5938 182.625 93.8008 182.575 94.0391C182.528 94.2734 182.504 94.5312 182.504 94.8125V95.0469C182.504 95.3008 182.54 95.5352 182.61 95.75C182.684 95.9648 182.788 96.1504 182.92 96.3066C183.057 96.4629 183.221 96.584 183.413 96.6699C183.608 96.7559 183.829 96.7988 184.075 96.7988C184.379 96.7988 184.663 96.7402 184.924 96.623C185.19 96.502 185.418 96.3203 185.61 96.0781L186.43 96.9688C186.297 97.1602 186.116 97.3438 185.885 97.5195C185.659 97.6953 185.385 97.8398 185.065 97.9531C184.745 98.0625 184.379 98.1172 183.969 98.1172ZM191.545 91.6602H193.075V97.7891C193.075 98.3672 192.946 98.8574 192.688 99.2598C192.434 99.666 192.079 99.9727 191.622 100.18C191.165 100.391 190.633 100.496 190.028 100.496C189.762 100.496 189.481 100.461 189.184 100.391C188.891 100.32 188.61 100.211 188.34 100.062C188.075 99.9141 187.852 99.7266 187.672 99.5L188.417 98.5039C188.612 98.7305 188.838 98.9062 189.096 99.0312C189.354 99.1602 189.639 99.2246 189.952 99.2246C190.256 99.2246 190.514 99.168 190.725 99.0547C190.936 98.9453 191.098 98.7832 191.211 98.5684C191.325 98.3574 191.381 98.1016 191.381 97.8008V93.125L191.545 91.6602ZM187.28 94.9062V94.7832C187.28 94.2988 187.338 93.8594 187.456 93.4648C187.577 93.0664 187.747 92.7246 187.965 92.4395C188.188 92.1543 188.458 91.9336 188.774 91.7773C189.09 91.6211 189.448 91.543 189.846 91.543C190.268 91.543 190.622 91.6211 190.907 91.7773C191.192 91.9336 191.426 92.1562 191.61 92.4453C191.793 92.7305 191.936 93.0684 192.038 93.459C192.143 93.8457 192.225 94.2695 192.284 94.7305V95C192.225 95.4414 192.137 95.8516 192.02 96.2305C191.903 96.6094 191.749 96.9414 191.557 97.2266C191.366 97.5078 191.127 97.7266 190.842 97.8828C190.561 98.0391 190.225 98.1172 189.834 98.1172C189.444 98.1172 189.09 98.0371 188.774 97.877C188.461 97.7168 188.194 97.4922 187.971 97.2031C187.749 96.9141 187.577 96.5742 187.456 96.1836C187.338 95.793 187.28 95.3672 187.28 94.9062ZM188.967 94.7832V94.9062C188.967 95.168 188.993 95.4121 189.043 95.6387C189.094 95.8652 189.172 96.0664 189.278 96.2422C189.387 96.4141 189.522 96.5488 189.682 96.6465C189.846 96.7402 190.04 96.7871 190.262 96.7871C190.571 96.7871 190.823 96.7227 191.018 96.5938C191.213 96.4609 191.36 96.2793 191.458 96.0488C191.555 95.8184 191.612 95.5527 191.627 95.252V94.4844C191.62 94.2383 191.586 94.0176 191.528 93.8223C191.469 93.623 191.387 93.4531 191.282 93.3125C191.176 93.1719 191.04 93.0625 190.872 92.9844C190.704 92.9062 190.504 92.8672 190.274 92.8672C190.051 92.8672 189.858 92.918 189.694 93.0195C189.534 93.1172 189.399 93.252 189.29 93.4238C189.184 93.5957 189.104 93.7988 189.049 94.0332C188.995 94.2637 188.967 94.5137 188.967 94.7832ZM197.809 96.5703V93.7461C197.809 93.543 197.776 93.3691 197.709 93.2246C197.643 93.0762 197.54 92.9609 197.399 92.8789C197.262 92.7969 197.084 92.7559 196.866 92.7559C196.678 92.7559 196.516 92.7891 196.379 92.8555C196.243 92.918 196.137 93.0098 196.063 93.1309C195.989 93.248 195.952 93.3867 195.952 93.5469H194.264C194.264 93.2773 194.327 93.0215 194.452 92.7793C194.577 92.5371 194.758 92.3242 194.997 92.1406C195.235 91.9531 195.518 91.8066 195.846 91.7012C196.178 91.5957 196.549 91.543 196.959 91.543C197.452 91.543 197.889 91.625 198.272 91.7891C198.655 91.9531 198.956 92.1992 199.174 92.5273C199.397 92.8555 199.508 93.2656 199.508 93.7578V96.4707C199.508 96.8184 199.53 97.1035 199.573 97.3262C199.616 97.5449 199.678 97.7363 199.76 97.9004V98H198.055C197.973 97.8281 197.911 97.6133 197.868 97.3555C197.829 97.0938 197.809 96.832 197.809 96.5703ZM198.032 94.1387L198.043 95.0938H197.1C196.877 95.0938 196.684 95.1191 196.52 95.1699C196.356 95.2207 196.221 95.293 196.116 95.3867C196.01 95.4766 195.932 95.582 195.881 95.7031C195.834 95.8242 195.811 95.957 195.811 96.1016C195.811 96.2461 195.844 96.377 195.911 96.4941C195.977 96.6074 196.073 96.6973 196.198 96.7637C196.323 96.8262 196.469 96.8574 196.637 96.8574C196.891 96.8574 197.112 96.8066 197.299 96.7051C197.487 96.6035 197.631 96.4785 197.733 96.3301C197.838 96.1816 197.893 96.041 197.897 95.9082L198.342 96.623C198.28 96.7832 198.194 96.9492 198.084 97.1211C197.979 97.293 197.844 97.4551 197.68 97.6074C197.516 97.7559 197.319 97.8789 197.088 97.9766C196.858 98.0703 196.584 98.1172 196.268 98.1172C195.866 98.1172 195.5 98.0371 195.172 97.877C194.848 97.7129 194.59 97.4883 194.399 97.2031C194.211 96.9141 194.118 96.5859 194.118 96.2188C194.118 95.8867 194.18 95.5918 194.305 95.334C194.43 95.0762 194.614 94.8594 194.856 94.6836C195.102 94.5039 195.409 94.3691 195.776 94.2793C196.143 94.1855 196.569 94.1387 197.053 94.1387H198.032ZM202.59 89V98H200.897V89H202.59ZM212.024 95.1699H213.776C213.741 95.7441 213.583 96.2539 213.301 96.6992C213.024 97.1445 212.635 97.4922 212.135 97.7422C211.639 97.9922 211.042 98.1172 210.342 98.1172C209.795 98.1172 209.305 98.0234 208.872 97.8359C208.438 97.6445 208.067 97.3711 207.758 97.0156C207.454 96.6602 207.221 96.2305 207.061 95.7266C206.901 95.2227 206.821 94.6582 206.821 94.0332V93.4414C206.821 92.8164 206.903 92.252 207.067 91.748C207.235 91.2402 207.473 90.8086 207.782 90.4531C208.094 90.0977 208.467 89.8242 208.901 89.6328C209.334 89.4414 209.819 89.3457 210.354 89.3457C211.065 89.3457 211.665 89.4746 212.153 89.7324C212.645 89.9902 213.026 90.3457 213.295 90.7988C213.569 91.252 213.733 91.7676 213.788 92.3457H212.03C212.01 92.002 211.942 91.7109 211.825 91.4727C211.708 91.2305 211.53 91.0488 211.292 90.9277C211.057 90.8027 210.745 90.7402 210.354 90.7402C210.061 90.7402 209.805 90.7949 209.586 90.9043C209.368 91.0137 209.184 91.1797 209.036 91.4023C208.887 91.625 208.776 91.9062 208.702 92.2461C208.631 92.582 208.596 92.9766 208.596 93.4297V94.0332C208.596 94.4746 208.629 94.8633 208.696 95.1992C208.762 95.5312 208.864 95.8125 209 96.043C209.141 96.2695 209.321 96.4414 209.54 96.5586C209.762 96.6719 210.03 96.7285 210.342 96.7285C210.709 96.7285 211.012 96.6699 211.25 96.5527C211.489 96.4355 211.67 96.2617 211.795 96.0312C211.924 95.8008 212 95.5137 212.024 95.1699ZM214.555 94.8945V94.7715C214.555 94.3066 214.622 93.8789 214.754 93.4883C214.887 93.0938 215.081 92.752 215.334 92.4629C215.588 92.1738 215.901 91.9492 216.272 91.7891C216.643 91.625 217.069 91.543 217.549 91.543C218.03 91.543 218.458 91.625 218.833 91.7891C219.208 91.9492 219.522 92.1738 219.776 92.4629C220.034 92.752 220.229 93.0938 220.362 93.4883C220.495 93.8789 220.561 94.3066 220.561 94.7715V94.8945C220.561 95.3555 220.495 95.7832 220.362 96.1777C220.229 96.5684 220.034 96.9102 219.776 97.2031C219.522 97.4922 219.209 97.7168 218.838 97.877C218.467 98.0371 218.042 98.1172 217.561 98.1172C217.081 98.1172 216.653 98.0371 216.278 97.877C215.907 97.7168 215.592 97.4922 215.334 97.2031C215.081 96.9102 214.887 96.5684 214.754 96.1777C214.622 95.7832 214.555 95.3555 214.555 94.8945ZM216.243 94.7715V94.8945C216.243 95.1602 216.266 95.4082 216.313 95.6387C216.36 95.8691 216.434 96.0723 216.536 96.248C216.641 96.4199 216.778 96.5547 216.946 96.6523C217.114 96.75 217.319 96.7988 217.561 96.7988C217.795 96.7988 217.997 96.75 218.165 96.6523C218.333 96.5547 218.467 96.4199 218.569 96.248C218.67 96.0723 218.745 95.8691 218.792 95.6387C218.842 95.4082 218.868 95.1602 218.868 94.8945V94.7715C218.868 94.5137 218.842 94.2715 218.792 94.0449C218.745 93.8145 218.668 93.6113 218.563 93.4355C218.461 93.2559 218.327 93.1152 218.159 93.0137C217.991 92.9121 217.788 92.8613 217.549 92.8613C217.311 92.8613 217.108 92.9121 216.94 93.0137C216.776 93.1152 216.641 93.2559 216.536 93.4355C216.434 93.6113 216.36 93.8145 216.313 94.0449C216.266 94.2715 216.243 94.5137 216.243 94.7715ZM223.25 93.0137V98H221.563V91.6602H223.145L223.25 93.0137ZM223.004 94.6074H222.547C222.547 94.1387 222.608 93.7168 222.729 93.3418C222.85 92.9629 223.02 92.6406 223.239 92.375C223.458 92.1055 223.717 91.9004 224.018 91.7598C224.323 91.6152 224.663 91.543 225.038 91.543C225.334 91.543 225.606 91.5859 225.852 91.6719C226.098 91.7578 226.309 91.8945 226.485 92.082C226.665 92.2695 226.801 92.5176 226.895 92.8262C226.993 93.1348 227.042 93.5117 227.042 93.957V98H225.342V93.9512C225.342 93.6699 225.303 93.4512 225.225 93.2949C225.147 93.1387 225.032 93.0293 224.879 92.9668C224.731 92.9004 224.547 92.8672 224.329 92.8672C224.102 92.8672 223.905 92.9121 223.737 93.002C223.573 93.0918 223.436 93.2168 223.327 93.377C223.221 93.5332 223.141 93.7168 223.086 93.9277C223.032 94.1387 223.004 94.3652 223.004 94.6074ZM231.43 91.6602V92.8555H227.739V91.6602H231.43ZM228.653 90.0957H230.34V96.0898C230.34 96.2734 230.364 96.4141 230.411 96.5117C230.461 96.6094 230.536 96.6777 230.633 96.7168C230.731 96.752 230.854 96.7695 231.002 96.7695C231.108 96.7695 231.202 96.7656 231.284 96.7578C231.37 96.7461 231.442 96.7344 231.5 96.7227L231.506 97.9648C231.362 98.0117 231.206 98.0488 231.038 98.0762C230.87 98.1035 230.684 98.1172 230.481 98.1172C230.11 98.1172 229.786 98.0566 229.508 97.9355C229.235 97.8105 229.024 97.6113 228.875 97.3379C228.727 97.0645 228.653 96.7051 228.653 96.2598V90.0957ZM234.079 93.043V98H232.391V91.6602H233.979L234.079 93.043ZM235.989 91.6191L235.959 93.1836C235.877 93.1719 235.778 93.1621 235.661 93.1543C235.547 93.1426 235.444 93.1367 235.35 93.1367C235.112 93.1367 234.905 93.168 234.729 93.2305C234.557 93.2891 234.413 93.377 234.295 93.4941C234.182 93.6113 234.096 93.7539 234.038 93.9219C233.983 94.0898 233.952 94.2812 233.944 94.4961L233.604 94.3906C233.604 93.9805 233.645 93.6035 233.727 93.2598C233.809 92.9121 233.928 92.6094 234.084 92.3516C234.245 92.0938 234.44 91.8945 234.67 91.7539C234.901 91.6133 235.165 91.543 235.461 91.543C235.555 91.543 235.651 91.5508 235.749 91.5664C235.846 91.5781 235.926 91.5957 235.989 91.6191ZM240.008 96.5703V93.7461C240.008 93.543 239.975 93.3691 239.909 93.2246C239.842 93.0762 239.739 92.9609 239.598 92.8789C239.461 92.7969 239.284 92.7559 239.065 92.7559C238.877 92.7559 238.715 92.7891 238.579 92.8555C238.442 92.918 238.336 93.0098 238.262 93.1309C238.188 93.248 238.151 93.3867 238.151 93.5469H236.463C236.463 93.2773 236.526 93.0215 236.651 92.7793C236.776 92.5371 236.958 92.3242 237.196 92.1406C237.434 91.9531 237.717 91.8066 238.045 91.7012C238.377 91.5957 238.749 91.543 239.159 91.543C239.651 91.543 240.088 91.625 240.471 91.7891C240.854 91.9531 241.155 92.1992 241.374 92.5273C241.596 92.8555 241.708 93.2656 241.708 93.7578V96.4707C241.708 96.8184 241.729 97.1035 241.772 97.3262C241.815 97.5449 241.877 97.7363 241.959 97.9004V98H240.254C240.172 97.8281 240.11 97.6133 240.067 97.3555C240.028 97.0938 240.008 96.832 240.008 96.5703ZM240.231 94.1387L240.243 95.0938H239.299C239.077 95.0938 238.883 95.1191 238.719 95.1699C238.555 95.2207 238.42 95.293 238.315 95.3867C238.209 95.4766 238.131 95.582 238.081 95.7031C238.034 95.8242 238.01 95.957 238.01 96.1016C238.01 96.2461 238.043 96.377 238.11 96.4941C238.176 96.6074 238.272 96.6973 238.397 96.7637C238.522 96.8262 238.668 96.8574 238.836 96.8574C239.09 96.8574 239.311 96.8066 239.499 96.7051C239.686 96.6035 239.831 96.4785 239.932 96.3301C240.038 96.1816 240.092 96.041 240.096 95.9082L240.542 96.623C240.479 96.7832 240.393 96.9492 240.284 97.1211C240.178 97.293 240.043 97.4551 239.879 97.6074C239.715 97.7559 239.518 97.8789 239.288 97.9766C239.057 98.0703 238.784 98.1172 238.467 98.1172C238.065 98.1172 237.7 98.0371 237.372 97.877C237.047 97.7129 236.79 97.4883 236.598 97.2031C236.411 96.9141 236.317 96.5859 236.317 96.2188C236.317 95.8867 236.379 95.5918 236.504 95.334C236.629 95.0762 236.813 94.8594 237.055 94.6836C237.301 94.5039 237.608 94.3691 237.975 94.2793C238.342 94.1855 238.768 94.1387 239.252 94.1387H240.231ZM245.627 96.7988C245.834 96.7988 246.018 96.7598 246.178 96.6816C246.338 96.5996 246.463 96.4863 246.553 96.3418C246.647 96.1934 246.696 96.0195 246.7 95.8203H248.288C248.284 96.2656 248.165 96.6621 247.93 97.0098C247.696 97.3535 247.381 97.625 246.987 97.8242C246.592 98.0195 246.151 98.1172 245.663 98.1172C245.17 98.1172 244.741 98.0352 244.374 97.8711C244.01 97.707 243.708 97.4805 243.465 97.1914C243.223 96.8984 243.042 96.5586 242.92 96.1719C242.799 95.7812 242.739 95.3633 242.739 94.918V94.748C242.739 94.2988 242.799 93.8809 242.92 93.4941C243.042 93.1035 243.223 92.7637 243.465 92.4746C243.708 92.1816 244.01 91.9531 244.374 91.7891C244.737 91.625 245.163 91.543 245.651 91.543C246.17 91.543 246.625 91.6426 247.016 91.8418C247.411 92.041 247.719 92.3262 247.942 92.6973C248.168 93.0645 248.284 93.5 248.288 94.0039H246.7C246.696 93.793 246.651 93.6016 246.565 93.4297C246.483 93.2578 246.362 93.1211 246.202 93.0195C246.045 92.9141 245.852 92.8613 245.622 92.8613C245.375 92.8613 245.174 92.9141 245.018 93.0195C244.862 93.1211 244.741 93.2617 244.655 93.4414C244.569 93.6172 244.508 93.8184 244.473 94.0449C244.442 94.2676 244.426 94.502 244.426 94.748V94.918C244.426 95.1641 244.442 95.4004 244.473 95.627C244.504 95.8535 244.563 96.0547 244.649 96.2305C244.739 96.4062 244.862 96.5449 245.018 96.6465C245.174 96.748 245.377 96.7988 245.627 96.7988ZM252.372 91.6602V92.8555H248.68V91.6602H252.372ZM249.594 90.0957H251.282V96.0898C251.282 96.2734 251.305 96.4141 251.352 96.5117C251.403 96.6094 251.477 96.6777 251.575 96.7168C251.672 96.752 251.795 96.7695 251.944 96.7695C252.049 96.7695 252.143 96.7656 252.225 96.7578C252.311 96.7461 252.383 96.7344 252.442 96.7227L252.448 97.9648C252.303 98.0117 252.147 98.0488 251.979 98.0762C251.811 98.1035 251.625 98.1172 251.422 98.1172C251.051 98.1172 250.727 98.0566 250.45 97.9355C250.176 97.8105 249.965 97.6113 249.817 97.3379C249.668 97.0645 249.594 96.7051 249.594 96.2598V90.0957Z" fill="url(#paint1_linear_74_22)"/>
<path d="M156.756 71.7681C156.756 71.0698 156.648 70.4432 156.434 69.8882C156.237 69.3153 155.861 68.7961 155.306 68.3306C154.751 67.8472 153.972 67.3727 152.969 66.9072C151.967 66.4417 150.669 65.9583 149.075 65.457C147.303 64.8841 145.62 64.2396 144.026 63.5234C142.451 62.8073 141.054 61.9748 139.837 61.0259C138.637 60.0591 137.688 58.9401 136.99 57.6689C136.31 56.3978 135.97 54.9207 135.97 53.2378C135.97 51.6086 136.328 50.1315 137.044 48.8066C137.76 47.4639 138.763 46.318 140.052 45.3691C141.341 44.4023 142.863 43.6593 144.617 43.1401C146.39 42.6209 148.332 42.3613 150.445 42.3613C153.327 42.3613 155.843 42.8805 157.991 43.9189C160.14 44.9574 161.805 46.3807 162.986 48.189C164.186 49.9972 164.786 52.0651 164.786 54.3926H156.783C156.783 53.2467 156.541 52.2441 156.058 51.3848C155.592 50.5075 154.876 49.8182 153.909 49.3169C152.96 48.8156 151.761 48.5649 150.311 48.5649C148.914 48.5649 147.75 48.7798 146.819 49.2095C145.888 49.6213 145.19 50.1852 144.725 50.9014C144.259 51.5996 144.026 52.3874 144.026 53.2646C144.026 53.9271 144.188 54.5269 144.51 55.064C144.85 55.6011 145.351 56.1024 146.014 56.5679C146.676 57.0334 147.491 57.472 148.458 57.8838C149.424 58.2956 150.543 58.6984 151.814 59.0923C153.945 59.7368 155.816 60.4619 157.427 61.2676C159.056 62.0732 160.417 62.9774 161.509 63.98C162.601 64.9826 163.425 66.1195 163.98 67.3906C164.535 68.6618 164.812 70.103 164.812 71.7144C164.812 73.4152 164.481 74.937 163.819 76.2798C163.156 77.6226 162.199 78.7594 160.945 79.6904C159.692 80.6214 158.197 81.3286 156.46 81.812C154.724 82.2954 152.781 82.5371 150.633 82.5371C148.699 82.5371 146.792 82.2865 144.913 81.7852C143.033 81.266 141.323 80.4871 139.783 79.4487C138.261 78.4103 137.044 77.0854 136.131 75.4741C135.218 73.8628 134.761 71.9561 134.761 69.7539H142.845C142.845 70.9714 143.033 72.0008 143.409 72.8423C143.785 73.6838 144.313 74.3641 144.993 74.8833C145.691 75.4025 146.515 75.7785 147.464 76.0112C148.431 76.244 149.487 76.3604 150.633 76.3604C152.029 76.3604 153.175 76.1634 154.07 75.7695C154.983 75.3757 155.655 74.8296 156.084 74.1313C156.532 73.4331 156.756 72.6453 156.756 71.7681ZM206.428 75.7158V82H186.743V75.7158H206.428ZM189.348 42.8984V82H181.291V42.8984H189.348ZM242.94 69.0288H250.97C250.809 71.6606 250.084 73.9971 248.795 76.0381C247.524 78.0791 245.742 79.6725 243.451 80.8184C241.177 81.9642 238.438 82.5371 235.233 82.5371C232.726 82.5371 230.479 82.1074 228.492 81.248C226.505 80.3708 224.804 79.1175 223.39 77.4883C221.993 75.859 220.928 73.8896 220.194 71.5801C219.46 69.2705 219.093 66.6834 219.093 63.8188V61.1064C219.093 58.2419 219.469 55.6548 220.221 53.3452C220.991 51.0177 222.083 49.0394 223.497 47.4102C224.929 45.7809 226.639 44.5277 228.626 43.6504C230.614 42.7731 232.834 42.3345 235.287 42.3345C238.545 42.3345 241.293 42.9253 243.531 44.1069C245.787 45.2886 247.533 46.9178 248.768 48.9946C250.021 51.0715 250.773 53.4347 251.024 56.0845H242.967C242.878 54.509 242.564 53.1751 242.027 52.083C241.49 50.973 240.676 50.1405 239.583 49.5854C238.509 49.0125 237.077 48.7261 235.287 48.7261C233.944 48.7261 232.771 48.9767 231.769 49.478C230.766 49.9793 229.924 50.7402 229.244 51.7607C228.564 52.7812 228.054 54.0703 227.713 55.6279C227.391 57.1676 227.23 58.9759 227.23 61.0527V63.8188C227.23 65.842 227.382 67.6234 227.687 69.1631C227.991 70.6849 228.456 71.974 229.083 73.0303C229.728 74.0687 230.551 74.8564 231.554 75.3936C232.574 75.9128 233.801 76.1724 235.233 76.1724C236.916 76.1724 238.303 75.9038 239.396 75.3667C240.488 74.8296 241.32 74.0329 241.893 72.9766C242.484 71.9202 242.833 70.6043 242.94 69.0288Z" fill="url(#paint2_radial_74_22)"/>
<defs>
<linearGradient id="paint0_linear_74_22" x1="23" y1="9" x2="10106.3" y2="9" gradientUnits="userSpaceOnUse">
<stop stop-color="#3B82F6"/>
<stop offset="1" stop-color="#06B6D4"/>
</linearGradient>
<linearGradient id="paint1_linear_74_22" x1="137.95" y1="94" x2="253.908" y2="94" gradientUnits="userSpaceOnUse">
<stop stop-color="#3B82F6"/>
<stop offset="1" stop-color="#3B82F6"/>
</linearGradient>
<radialGradient id="paint2_radial_74_22" cx="0" cy="0" r="1" gradientUnits="userSpaceOnUse" gradientTransform="translate(193.408 63) rotate(90) scale(32 60.5)">
<stop offset="0.149038" stop-color="#3B82F6"/>
<stop offset="0.807692" stop-color="#3B82F6"/>
</radialGradient>
</defs>
</svg>
